<svg xmlns="http://www.w3.org/2000/svg" viewBox="0 0 367.83 65.88"><defs><style>.cls-1{fill:#303752;}.cls-2,.cls-4{fill:#fff;}.cls-3{fill:#303f60;}.cls-4{fill-rule:evenodd;}</style></defs><title>logo_text</title><g id="Layer_2" data-name="Layer 2"><g id="Badge"><g id="BACKGROUND_2" data-name="BACKGROUND 2"><g id="Layer_1-2" data-name="Layer 1"><path class="cls-1" d="M99.07,19.37A6.38,6.38,0,0,1,97.22,24a6.69,6.69,0,0,1-9.25,0,6.15,6.15,0,0,1-1.89-4.56A6,6,0,0,1,88,15a6.75,6.75,0,0,1,8.37-.58,5.6,5.6,0,0,1,2.34,3.13h-3.5A2.89,2.89,0,0,0,92.53,16a3.12,3.12,0,0,0-2.42,1,3.59,3.59,0,0,0-.92,2.5,3.79,3.79,0,0,0,.89,2.58,3.09,3.09,0,0,0,2.46,1.09,3.38,3.38,0,0,0,1.82-.48,2.48,2.48,0,0,0,1.1-1.49H91.82V18.73h7.24c0,.1,0,.2,0,.32Z"/><path class="cls-1" d="M101.19,25.67V13.46h3.12V25.67Z"/><path class="cls-1" d="M114.89,25.67l-.6-1.76h-4.24l-.64,1.76h-3.35L111,13.46h2.46l4.86,12.21Zm-2.67-8.41h0l-1.26,4.17h2.56Z"/><path class="cls-1" d="M130.21,24.09a6.63,6.63,0,0,1-9.07,0,5.82,5.82,0,0,1-1.92-4.4,7.14,7.14,0,0,1,.48-2.61,5.59,5.59,0,0,1,.8-1.37,6.14,6.14,0,0,1,5.16-2.5,6.28,6.28,0,0,1,4.56,1.82,6,6,0,0,1,1.88,4.51A6.07,6.07,0,0,1,130.21,24.09Zm-2.13-7A3.06,3.06,0,0,0,125.66,16,3.1,3.1,0,0,0,123.25,17a3.61,3.61,0,0,0-.92,2.5,3.69,3.69,0,0,0,.93,2.54,3.11,3.11,0,0,0,2.44,1.09,3,3,0,0,0,2.38-1.1,3.92,3.92,0,0,0,0-5Z"/><path class="cls-1" d="M144,25.67h-4.27V13.46h4a12.31,12.31,0,0,1,1.58.09,6.72,6.72,0,0,1,1.43.34,5,5,0,0,1,2.38,1.85,6.31,6.31,0,0,1,1.13,3.79Q150.27,25.67,144,25.67Zm2.46-8.5a2.73,2.73,0,0,0-2.26-1h-1.35v6.73h1.34a2.77,2.77,0,0,0,2.29-.93,3.71,3.71,0,0,0,.7-2.42A3.75,3.75,0,0,0,146.45,17.16Z"/><path class="cls-1" d="M152.63,25.67V13.46h3.12V25.67Zm.25,4V27.13h2.62v2.49Z"/><path class="cls-1" d="M170.56,21.1a6.14,6.14,0,0,1-2.25,3.48,6.52,6.52,0,0,1-8.47-.52A6.08,6.08,0,0,1,158,19.55a6.07,6.07,0,0,1,1.87-4.5,6.25,6.25,0,0,1,4.53-1.81,6.07,6.07,0,0,1,5.37,2.87,5.14,5.14,0,0,1,.83,2h-3.27A3,3,0,0,0,164.35,16,3,3,0,0,0,162,17a3.67,3.67,0,0,0-.89,2.49,3.75,3.75,0,0,0,.89,2.52,3,3,0,0,0,2.39,1.11,3.08,3.08,0,0,0,2.93-2.06Z"/><path class="cls-1" d="M179.8,25.67V20.79h-4v4.88h-3.12V13.46h3.12V18h4V13.46h3.12V25.67Z"/><path class="cls-1" d="M200.71,24a5.76,5.76,0,0,1-4.38,1.69h-4.61V20.79h-1.1V18h1.1V13.46h4.11a11.23,11.23,0,0,1,1.57.1,6.12,6.12,0,0,1,1.4.33,5.18,5.18,0,0,1,2.36,1.85,6.32,6.32,0,0,1,1.12,3.79A6.2,6.2,0,0,1,200.71,24Zm-2.25-6.81a2.71,2.71,0,0,0-2.26-1h-1.35V18h1.78v2.74h-1.78v2.14h1.34a2.79,2.79,0,0,0,2.29-.93,3.74,3.74,0,0,0,.69-2.42A3.75,3.75,0,0,0,198.45,17.16Z"/><path class="cls-1" d="M204.47,25.67V13.46h3.12V25.67Z"/><path class="cls-1" d="M214.41,12.39l-.76-1-.76,1h-2.67l2.57-2.74h1.79l2.47,2.74Zm-4.11,13.28V13.46h6.78V16.2h-3.79v1.9H217v2.74h-3.68v2.09h3.79v2.74Zm2.09,4V27.13H215v2.49Z"/><path class="cls-1" d="M227.11,25.67l-4.65-7.42,0,0,.09,7.41h-3V13.46h2.69l4.72,7.67,0,0-.14-7.64h3V25.67Z"/><path class="cls-1" d="M242.73,16.2v9.47h-3.12V16.2H237.2V13.46h7.92V16.2Z"/><path class="cls-1" d="M256.21,15.55v5.29a8,8,0,0,1-.21,2,4,4,0,0,1-1,1.72,4.57,4.57,0,0,1-3.41,1.32,5.87,5.87,0,0,1-1.9-.3,3.92,3.92,0,0,1-1.61-1,4.14,4.14,0,0,1-1-1.74,5.16,5.16,0,0,1-.15-.94q0-.42,0-1.08V13.46H250v7.38a6.11,6.11,0,0,0,0,.83,2.47,2.47,0,0,0,.22.75,1.34,1.34,0,0,0,1.32.75,1.31,1.31,0,0,0,1.32-.73,2.26,2.26,0,0,0,.19-.74q0-.32,0-.85V13.46h3.12v.65a1.18,1.18,0,0,0,.33-.85h-.64V11.43h1.84v1.89a2.53,2.53,0,0,1-.77,1.74A3.15,3.15,0,0,1,256.21,15.55ZM253.48,11a2.35,2.35,0,0,1-.24.31,2.61,2.61,0,0,1-.27.28l-.27.26-.25.25a1,1,0,0,0-.27.55h-1.4a1.43,1.43,0,0,1,.23-.72,2.9,2.9,0,0,1,.22-.29l.26-.27.25-.25.22-.25a.86.86,0,0,0,.22-.52q0-.5-.47-.5a.47.47,0,0,0-.46.24,1.23,1.23,0,0,0-.1.53h-1.47a.3.3,0,0,1,0-.07v-.07A1.89,1.89,0,0,1,250.28,9a2.13,2.13,0,0,1,1.5-.55,1.81,1.81,0,0,1,1.74,1,1.56,1.56,0,0,1,.19.74A1.57,1.57,0,0,1,253.48,11Z"/><path class="cls-2" d="M98.75,18.94a6.38,6.38,0,0,1-1.85,4.68,6.69,6.69,0,0,1-9.25,0,6.15,6.15,0,0,1-1.89-4.56,6,6,0,0,1,1.92-4.52A6.75,6.75,0,0,1,96,14a5.6,5.6,0,0,1,2.34,3.13H94.9a2.89,2.89,0,0,0-2.69-1.58,3.12,3.12,0,0,0-2.42,1,3.59,3.59,0,0,0-.92,2.5,3.79,3.79,0,0,0,.89,2.58,3.09,3.09,0,0,0,2.46,1.09A3.38,3.38,0,0,0,94,22.28a2.48,2.48,0,0,0,1.1-1.49H91.5V18.3h7.24c0,.1,0,.2,0,.32Z"/><path class="cls-2" d="M100.88,25.24V13H104V25.24Z"/><path class="cls-2" d="M114.58,25.24l-.6-1.76h-4.24l-.64,1.76h-3.35L110.65,13h2.46L118,25.24Zm-2.67-8.41h0L110.6,21h2.56Z"/><path class="cls-2" d="M129.89,23.66a6.63,6.63,0,0,1-9.07,0,5.82,5.82,0,0,1-1.92-4.4,7.14,7.14,0,0,1,.48-2.61,5.59,5.59,0,0,1,.8-1.37,6.14,6.14,0,0,1,5.16-2.5,6.28,6.28,0,0,1,4.56,1.82,6,6,0,0,1,1.88,4.51A6.07,6.07,0,0,1,129.89,23.66Zm-2.13-7a3.06,3.06,0,0,0-2.41-1.09,3.1,3.1,0,0,0-2.42,1.06,3.61,3.61,0,0,0-.92,2.5,3.69,3.69,0,0,0,.93,2.54,3.11,3.11,0,0,0,2.44,1.09,3,3,0,0,0,2.38-1.1,3.92,3.92,0,0,0,0-5Z"/><path class="cls-2" d="M143.67,25.24H139.4V13h4a12.31,12.31,0,0,1,1.58.09,6.72,6.72,0,0,1,1.43.34,5,5,0,0,1,2.38,1.85A6.31,6.31,0,0,1,150,19.1Q150,25.24,143.67,25.24Zm2.46-8.5a2.73,2.73,0,0,0-2.26-1h-1.35V22.5h1.34a2.77,2.77,0,0,0,2.29-.93,3.71,3.71,0,0,0,.7-2.42A3.75,3.75,0,0,0,146.13,16.74Z"/><path class="cls-2" d="M152.31,25.24V13h3.12V25.24Zm.25,4V26.7h2.62v2.49Z"/><path class="cls-2" d="M170.25,20.67A6.14,6.14,0,0,1,168,24.15a6.52,6.52,0,0,1-8.47-.52,6.08,6.08,0,0,1-1.88-4.52,6.07,6.07,0,0,1,1.87-4.5A6.25,6.25,0,0,1,164,12.81a6.07,6.07,0,0,1,5.37,2.87,5.14,5.14,0,0,1,.83,2H167A3,3,0,0,0,164,15.54a3,3,0,0,0-2.38,1.07,3.67,3.67,0,0,0-.89,2.49,3.75,3.75,0,0,0,.89,2.52A3,3,0,0,0,164,22.73,3.08,3.08,0,0,0,167,20.67Z"/><path class="cls-2" d="M179.48,25.24V20.36h-4v4.88h-3.12V13h3.12v4.59h4V13h3.12V25.24Z"/><path class="cls-2" d="M200.39,23.55A5.76,5.76,0,0,1,196,25.24H191.4V20.36h-1.1V17.62h1.1V13h4.11a11.23,11.23,0,0,1,1.57.1,6.12,6.12,0,0,1,1.4.33,5.18,5.18,0,0,1,2.36,1.85A6.32,6.32,0,0,1,202,19.1,6.2,6.2,0,0,1,200.39,23.55Zm-2.25-6.81a2.71,2.71,0,0,0-2.26-1h-1.35v1.85h1.78v2.74h-1.78V22.5h1.34a2.79,2.79,0,0,0,2.29-.93,3.74,3.74,0,0,0,.69-2.42A3.75,3.75,0,0,0,198.14,16.74Z"/><path class="cls-2" d="M204.15,25.24V13h3.12V25.24Z"/><path class="cls-2" d="M214.09,12l-.76-1-.76,1h-2.67l2.57-2.74h1.79L216.74,12ZM210,25.24V13h6.78v2.74H213v1.9h3.68v2.74H213V22.5h3.79v2.74Zm2.09,4V26.7h2.62v2.49Z"/><path class="cls-2" d="M226.79,25.24l-4.65-7.42,0,0,.09,7.41h-3V13h2.69l4.72,7.67,0,0L226.51,13h3V25.24Z"/><path class="cls-2" d="M242.41,15.77v9.47h-3.12V15.77h-2.41V13h7.92v2.74Z"/><path class="cls-2" d="M255.89,15.12v5.29a8,8,0,0,1-.21,2,4,4,0,0,1-1,1.72,4.57,4.57,0,0,1-3.41,1.32,5.87,5.87,0,0,1-1.9-.3,3.92,3.92,0,0,1-1.61-1,4.14,4.14,0,0,1-1-1.74,5.16,5.16,0,0,1-.15-.94q0-.42,0-1.08V13h3.12v7.38a6.11,6.11,0,0,0,0,.83,2.47,2.47,0,0,0,.22.75,1.34,1.34,0,0,0,1.32.75,1.31,1.31,0,0,0,1.32-.73,2.26,2.26,0,0,0,.19-.74q0-.32,0-.85V13h3.12v.65a1.18,1.18,0,0,0,.33-.85h-.64V11h1.84v1.89a2.53,2.53,0,0,1-.77,1.74A3.15,3.15,0,0,1,255.89,15.12Zm-2.73-4.54a2.35,2.35,0,0,1-.24.31,2.61,2.61,0,0,1-.27.28l-.27.26-.25.25a1,1,0,0,0-.27.55h-1.4a1.43,1.43,0,0,1,.23-.72,2.9,2.9,0,0,1,.22-.29l.26-.27.25-.25.22-.25a.86.86,0,0,0,.22-.52q0-.5-.47-.5a.47.47,0,0,0-.46.24,1.23,1.23,0,0,0-.1.53h-1.47a.3.3,0,0,1,0-.07v-.07A1.89,1.89,0,0,1,250,8.59a2.13,2.13,0,0,1,1.5-.55,1.81,1.81,0,0,1,1.74,1,1.56,1.56,0,0,1,.19.74A1.57,1.57,0,0,1,253.16,10.57Z"/><path class="cls-3" d="M86.48,58.16v-19h6.07a5.46,5.46,0,0,1,3.63,1,4.55,4.55,0,0,1,1.12,3.48,6.86,6.86,0,0,1-.41,2.72,3.28,3.28,0,0,1-2,1.76,3,3,0,0,1,2.22,1.46,5.93,5.93,0,0,1,.67,3,6.7,6.7,0,0,1-1.07,4,4.68,4.68,0,0,1-4,1.63Zm4.38-15.79v4.29h.81A1.32,1.32,0,0,0,93,46a3.87,3.87,0,0,0,.24-1.57,3.3,3.3,0,0,0-.28-1.57,1.13,1.13,0,0,0-1.08-.5Zm0,7.39v5.16h.91a1.48,1.48,0,0,0,1.31-.5,4.87,4.87,0,0,0,.3-2.09,5,5,0,0,0-.23-1.79,1.28,1.28,0,0,0-1.29-.78Z"/><path class="cls-3" d="M103.17,39.09H109l3.59,19.06H108l-.41-3.38h-3.07L104,58.16H99.64Zm1.83-1a3,3,0,0,1,.48-1.42l.91-1.14a1.81,1.81,0,0,0,.5-1.17,1.62,1.62,0,0,0-.12-.66.54.54,0,0,0-.52-.27.57.57,0,0,0-.5.29,2.2,2.2,0,0,0-.14.76v.65h-1.77v-.79a2.15,2.15,0,0,1,.66-1.62,2.48,2.48,0,0,1,1.81-.64,3,3,0,0,1,1.88.52,2.1,2.1,0,0,1,.64,1.69,2.54,2.54,0,0,1-.59,1.59L107.1,37.1a3,3,0,0,0-.51,1Zm-.06,13.29h2.19l-1-9.34Z"/><path class="cls-3" d="M114.43,53V44.31A5.3,5.3,0,0,1,116,40.17a5.81,5.81,0,0,1,4.06-1.36,5.9,5.9,0,0,1,4.09,1.41,5.23,5.23,0,0,1,1.55,4.09V53a5.31,5.31,0,0,1-1.52,4A6.42,6.42,0,0,1,116,57,5.3,5.3,0,0,1,114.43,53Zm4.38-9v9.41a2.58,2.58,0,0,0,.29,1.34,1.29,1.29,0,0,0,2.07-.27,3.44,3.44,0,0,0,.16-1.07V43.93a3.48,3.48,0,0,0-.14-1.09,1.11,1.11,0,0,0-1.12-.64,1.13,1.13,0,0,0-1.1.62A3.58,3.58,0,0,0,118.82,43.93Z"/><path class="cls-3" d="M135.05,58.16v-19h4.38v7.13H142V39.12h4.39v19H142V50h-2.52v8.11Z"/><path class="cls-3" d="M149.17,58.16v-19h4.38v19Z"/><path class="cls-3" d="M156.38,39.09h9.75v3.68h-5.36v3.8h4.7v3.68h-4.7v4.23h5.57v3.68h-10ZM157.84,38l2-3.23h3.36L164.89,38h-2.48l-1-1.81L160.18,38Zm6.65-2v-.48q0-.5,1.09-1.66a2.24,2.24,0,0,0,.38-.53,1.25,1.25,0,0,0,.15-.58.89.89,0,0,0-.12-.52q-.08-.14-.45-.16a.71.71,0,0,0-.79.81v.57h-1.62v-.7a2,2,0,0,1,.59-1.4,2.52,2.52,0,0,1,1.88-.7,2.62,2.62,0,0,1,1.66.5,1.79,1.79,0,0,1,.64,1.5,2.28,2.28,0,0,1-1,1.72,2.18,2.18,0,0,0-1,1.62Z"/><path class="cls-3" d="M169.15,58.16v-19h6.91l1.24,9.43,1.28-9.43h6.91v19h-4.23V43.36l-2.5,14.79H175.9l-2.45-14.79,0,14.79Z"/><path class="cls-3" d="M194.2,58.16l3.7-10.27-3.48-8.77h4.71l1.5,5.41,1.57-5.41h4.56L203.25,48,207,58.16h-4.59L200.52,52l-1.77,6.15Z"/><path class="cls-3" d="M211.63,39.09h5.82L221,58.16h-4.62L216,54.77h-3.07l-.45,3.38h-4.39Zm6.82-3.78a5.17,5.17,0,0,1-1,1.66,2.3,2.3,0,0,1-1.74.72,3.58,3.58,0,0,1-1.48-.41,3.51,3.51,0,0,0-1.26-.38,1.32,1.32,0,0,0-.69.29,1.88,1.88,0,0,0-.2.21l-.28.36-1.15-.43q.17-.45.29-.72a2.93,2.93,0,0,1,.55-.85A1.93,1.93,0,0,1,213,35a4.7,4.7,0,0,1,1.59.36,8,8,0,0,0,1.38.45,1.23,1.23,0,0,0,.78-.26,1.65,1.65,0,0,0,.51-.69Zm-5,16.07h2.19l-1-9.34Z"/><path class="cls-3" d="M229.54,58.16v-19h4.38v7.13h2.52V39.12h4.39v19h-4.39V50h-2.52v8.11Z"/><path class="cls-3" d="M243.52,44.29a5.34,5.34,0,0,1,1.59-4.15,5.85,5.85,0,0,1,4.06-1.35,6,6,0,0,1,4.09,1.38,5.22,5.22,0,0,1,1.57,4.12V53a5.36,5.36,0,0,1-1.52,4,6.45,6.45,0,0,1-8.25,0,5.3,5.3,0,0,1-1.55-4ZM245.64,38l2-3.23H251L252.7,38h-2.48l-1-1.81L248,38Zm1.54,22h4.09V62.8h-4.09Zm.73-6.64a2.58,2.58,0,0,0,.29,1.34,1.29,1.29,0,0,0,2.07-.27,3.44,3.44,0,0,0,.16-1.07V43.91a3.48,3.48,0,0,0-.14-1.09,1.11,1.11,0,0,0-1.12-.64,1.13,1.13,0,0,0-1.1.62,3.59,3.59,0,0,0-.16,1.12Z"/><path class="cls-3" d="M257.63,58.16v-19H262v19Z"/><path class="cls-3" d="M273.59,58.16l-2.91-19h4.48l1.2,13.54,1.5-13.54h4.4l-3.23,19Z"/><path class="cls-3" d="M284.29,58.16v-19h4.38v19Z"/><path class="cls-3" d="M291.5,39.09h9.75v3.68h-5.36v3.8h4.7v3.68h-4.7v4.23h5.57v3.68h-10ZM293,38l2-3.23h3.36L300,38h-2.48l-1-1.81L295.29,38Zm1.31,22h4.09V62.8h-4.09Z"/><path class="cls-3" d="M303.43,42.79V39.12h10.06v3.68h-2.84V58.16h-4.39V42.79Z"/><path class="cls-3" d="M322.11,58.16v-19h4.79l3.52,11.22,0-11.22h4.25v19h-4.77L326.4,46.39l0,11.77Z"/><path class="cls-3" d="M336.58,58.16l3.52-19h5.82l3.57,19H344.9l-.41-3.38h-3.07L341,58.16Zm5.29-6.77h2.19l-1-9.32Z"/><path class="cls-3" d="M351.49,58.16v-19h6.91l1.24,9.43,1.28-9.43h6.91v19H363.6V43.36l-2.5,14.79h-2.86l-2.45-14.79,0,14.79Z"/><path class="cls-2" d="M85.48,57.16v-19h6.07a5.46,5.46,0,0,1,3.63,1,4.55,4.55,0,0,1,1.12,3.48,6.86,6.86,0,0,1-.41,2.72,3.28,3.28,0,0,1-2,1.76,3,3,0,0,1,2.22,1.46,5.93,5.93,0,0,1,.67,3,6.7,6.7,0,0,1-1.07,4,4.68,4.68,0,0,1-4,1.63Zm4.38-15.79v4.29h.81A1.32,1.32,0,0,0,92,45a3.87,3.87,0,0,0,.24-1.57,3.3,3.3,0,0,0-.28-1.57,1.13,1.13,0,0,0-1.08-.5Zm0,7.39v5.16h.91a1.48,1.48,0,0,0,1.31-.5,4.87,4.87,0,0,0,.3-2.09,5,5,0,0,0-.23-1.79,1.28,1.28,0,0,0-1.29-.78Z"/><path class="cls-2" d="M102.17,38.09H108l3.59,19.06H107l-.41-3.38h-3.07L103,57.16H98.64Zm1.83-1a3,3,0,0,1,.48-1.42l.91-1.14a1.81,1.81,0,0,0,.5-1.17,1.62,1.62,0,0,0-.12-.66.54.54,0,0,0-.52-.27.57.57,0,0,0-.5.29,2.2,2.2,0,0,0-.14.76v.65h-1.77v-.79a2.15,2.15,0,0,1,.66-1.62,2.48,2.48,0,0,1,1.81-.64,3,3,0,0,1,1.88.52,2.1,2.1,0,0,1,.64,1.69,2.54,2.54,0,0,1-.59,1.59L106.1,36.1a3,3,0,0,0-.51,1Zm-.06,13.29h2.19l-1-9.34Z"/><path class="cls-2" d="M113.43,52V43.31A5.3,5.3,0,0,1,115,39.17a5.81,5.81,0,0,1,4.06-1.36,5.9,5.9,0,0,1,4.09,1.41,5.23,5.23,0,0,1,1.55,4.09V52a5.31,5.31,0,0,1-1.52,4A6.42,6.42,0,0,1,115,56,5.3,5.3,0,0,1,113.43,52Zm4.38-9v9.41a2.58,2.58,0,0,0,.29,1.34,1.29,1.29,0,0,0,2.07-.27,3.44,3.44,0,0,0,.16-1.07V42.93a3.48,3.48,0,0,0-.14-1.09,1.11,1.11,0,0,0-1.12-.64,1.13,1.13,0,0,0-1.1.62A3.58,3.58,0,0,0,117.82,42.93Z"/><path class="cls-2" d="M134.05,57.16v-19h4.38v7.13H141V38.12h4.39v19H141V49h-2.52v8.11Z"/><path class="cls-2" d="M148.17,57.16v-19h4.38v19Z"/><path class="cls-2" d="M155.38,38.09h9.75v3.68h-5.36v3.8h4.7v3.68h-4.7v4.23h5.57v3.68h-10ZM156.84,37l2-3.23h3.36L163.89,37h-2.48l-1-1.81L159.18,37Zm6.65-2v-.48q0-.5,1.09-1.66a2.24,2.24,0,0,0,.38-.53,1.25,1.25,0,0,0,.15-.58.89.89,0,0,0-.12-.52q-.08-.14-.45-.16a.71.71,0,0,0-.79.81v.57h-1.62v-.7a2,2,0,0,1,.59-1.4,2.52,2.52,0,0,1,1.88-.7,2.62,2.62,0,0,1,1.66.5,1.79,1.79,0,0,1,.64,1.5,2.28,2.28,0,0,1-1,1.72,2.18,2.18,0,0,0-1,1.62Z"/><path class="cls-2" d="M168.15,57.16v-19h6.91l1.24,9.43,1.28-9.43h6.91v19h-4.23V42.36l-2.5,14.79H174.9l-2.45-14.79,0,14.79Z"/><path class="cls-2" d="M193.2,57.16l3.7-10.27-3.48-8.77h4.71l1.5,5.41,1.57-5.41h4.56L202.25,47,206,57.16h-4.59L199.52,51l-1.77,6.15Z"/><path class="cls-2" d="M210.63,38.09h5.82L220,57.16h-4.62L215,53.77h-3.07l-.45,3.38h-4.39Zm6.82-3.78a5.17,5.17,0,0,1-1,1.66,2.3,2.3,0,0,1-1.74.72,3.58,3.58,0,0,1-1.48-.41,3.51,3.51,0,0,0-1.26-.38,1.32,1.32,0,0,0-.69.29,1.88,1.88,0,0,0-.2.21l-.28.36-1.15-.43q.17-.45.29-.72a2.93,2.93,0,0,1,.55-.85A1.93,1.93,0,0,1,212,34a4.7,4.7,0,0,1,1.59.36,8,8,0,0,0,1.38.45,1.23,1.23,0,0,0,.78-.26,1.65,1.65,0,0,0,.51-.69Zm-5,16.07h2.19l-1-9.34Z"/><path class="cls-2" d="M228.54,57.16v-19h4.38v7.13h2.52V38.12h4.39v19h-4.39V49h-2.52v8.11Z"/><path class="cls-2" d="M242.52,43.29a5.34,5.34,0,0,1,1.59-4.15,5.85,5.85,0,0,1,4.06-1.35,6,6,0,0,1,4.09,1.38,5.22,5.22,0,0,1,1.57,4.12V52a5.36,5.36,0,0,1-1.52,4,6.45,6.45,0,0,1-8.25,0,5.3,5.3,0,0,1-1.55-4ZM244.64,37l2-3.23H250L251.7,37h-2.48l-1-1.81L247,37Zm1.54,22h4.09V61.8h-4.09Zm.73-6.64a2.58,2.58,0,0,0,.29,1.34,1.29,1.29,0,0,0,2.07-.27,3.44,3.44,0,0,0,.16-1.07V42.91a3.48,3.48,0,0,0-.14-1.09,1.11,1.11,0,0,0-1.12-.64,1.13,1.13,0,0,0-1.1.62,3.59,3.59,0,0,0-.16,1.12Z"/><path class="cls-2" d="M256.63,57.16v-19H261v19Z"/><path class="cls-2" d="M272.59,57.16l-2.91-19h4.48l1.2,13.54,1.5-13.54h4.4l-3.23,19Z"/><path class="cls-2" d="M283.29,57.16v-19h4.38v19Z"/><path class="cls-2" d="M290.5,38.09h9.75v3.68h-5.36v3.8h4.7v3.68h-4.7v4.23h5.57v3.68h-10ZM292,37l2-3.23h3.36L299,37h-2.48l-1-1.81L294.29,37Zm1.31,22h4.09V61.8h-4.09Z"/><path class="cls-2" d="M302.43,41.79V38.12h10.06v3.68h-2.84V57.16h-4.39V41.79Z"/><path class="cls-2" d="M321.11,57.16v-19h4.79l3.52,11.22,0-11.22h4.25v19h-4.77L325.4,45.39l0,11.77Z"/><path class="cls-2" d="M335.58,57.16l3.52-19h5.82l3.57,19H343.9l-.41-3.38h-3.07L340,57.16Zm5.29-6.77h2.19l-1-9.32Z"/><path class="cls-2" d="M350.49,57.16v-19h6.91l1.24,9.43,1.28-9.43h6.91v19H362.6V42.36l-2.5,14.79h-2.86l-2.45-14.79,0,14.79Z"/><path class="cls-4" d="M32.67,21.89a3.52,3.52,0,1,1-3.51,3.52,3.52,3.52,0,0,1,3.51-3.52m-12.52-.36H24c4.07,4.33,8.17,9,8.63,15.24.5-6.17,4.57-10.83,8.63-15.13h3.86c-1.29,1.55-2.57,3.09-4.07,4.82-2.41,2.79-4.78,6.1-5,10.8v5.68a4.1,4.1,0,0,0,3,1.21c3,.48,4.66-.89,6.32-.13,0,0,0,0,0,0-.07-1.82,1.81-2.78,2.54-5.78,1.26-2.37-1.23-6.37-3.48-8.31l-.31-.2c3-.08,7.62-1.75,8.07-4.47,1.25-2.82.35-4.74,1.51-6.14,0,0,0,0,0,0-1.78-.41-2.22-2.47-4.92-3.95-2-1.89-6.72-.38-9.12,1.36q.11-.33.24-.63c.72-2.88.51-7.35-1.78-8.57-2.27-2.09-4.37-1.85-5.33-3.4,0,0,0,0,0,0-1,1.55-3,1.31-5.32,3.4-2.4,1.29-2.52,6.12-1.67,9l.08.22c-2.4-1.74-7.11-3.24-9.12-1.36-2.71,1.48-3.15,3.54-4.92,3.95,0,0,0,0,0,0,1.16,1.4.26,3.32,1.51,6.14.45,2.72,5.1,4.39,8.07,4.47l-.1.07h.1c-2.38,1.77-5.23,5.81-4,8.3.6,3,2.43,4.07,2.28,5.89,0,0,0,0,0,0,1.69-.69,3.24.75,6.31.4A4.41,4.41,0,0,0,29.27,43V37.14c-.27-4.7-2.63-8-5-10.8C22.73,24.61,21.45,23.07,20.16,21.52ZM17.28,47.08l.08,0c2.93-1.21,5.71,1.26,10.31,0a9.15,9.15,0,0,0,1.6-.69v9.38c2.34,0,4.4.05,6.74.05V46.22a9.37,9.37,0,0,0,1.08.48c4.54,1.51,7.42-.84,10.3.5l.08,0s0,0,0-.08c-.13-3.17,3.15-4.94,3.5-9.71a7.28,7.28,0,0,0-2.85-6.39,7.3,7.3,0,0,0,6-3.33c2.63-4,1.11-7.39,3.14-9.83l.06-.06-.08,0c-3.1-.69-4-4.32-8.46-5.9a7.4,7.4,0,0,0-6.4.73A7.38,7.38,0,0,0,41.06,6.2C38.12,2.43,34.41,2.78,32.76.07l0-.07,0,.07C31,2.78,27.32,2.43,24.38,6.2a7.37,7.37,0,0,0-1.31,6.49,7.39,7.39,0,0,0-6.46-.77c-4.51,1.58-5.37,5.2-8.46,5.9l-.08,0,.06.06c2,2.43.52,5.83,3.14,9.83a7.33,7.33,0,0,0,5.85,3.33,7.34,7.34,0,0,0-2.89,6.1c.15,4.78,3.34,6.69,3.07,9.85C17.29,47,17.28,47.08,17.28,47.08Z"/><path class="cls-2" d="M60.86,30.21l4.87-.08v1l-4.07.06,4.09.86,0,1L61.72,34l4.07,0v1l-4.87.08,0-1.48,3.82-.94-3.85-.82Zm2.5,8.64.18-1.24-2,.33Zm.8.39.95.48L65,40.77l-4.58-2.42.17-1.18,5.07-1-.16,1.09-1,.17Zm-4.41,1.71.33-.89,4.58,1.68-.35,1-3.95.67,3.26,1.21-.33.89-4.58-1.68.37-1,3.85-.64Zm-2.26,6.7,3.4,2.14-.54.86-3.4-2.14-.79,1.25-.72-.46,2.11-3.36.72.46Zm.78,6.55.67.41-.44.73-.67-.41Zm-5.78-3.51,1.25-.15-.39.65-.7.08.25.66-.39.65-.45-1.18Zm2.24-.4.68.52-1.56,2.06.82.62,1.43-1.9.68.52L55.36,54l1,.76L58,52.61l.69.52-2.24,3-3.89-2.94Zm-3.09,3.45,3.19,3.69-.77.67L50.87,54.4Zm-2.07,1.82.9-.56,1.17,5-.82.51-4-3.27.92-.57,2.84,2.59Zm-5.71,2.56,2,4.46L44.9,63l-2-4.46Zm-2.27,6.73.28.74-.8.31-.28-.74Zm-2.4-6.33,1.08.65-.71.27-.6-.36-.21.67L38,60l.37-1.2Zm-.28,3.91a1.85,1.85,0,0,0,.73,1.25,1.2,1.2,0,0,0,.93.15,1.18,1.18,0,0,0,.77-.51,1.85,1.85,0,0,0,.16-1.44,1.82,1.82,0,0,0-.72-1.24,1.18,1.18,0,0,0-.91-.15,1.21,1.21,0,0,0-.78.51A1.82,1.82,0,0,0,38.9,62.42Zm-1,.21A2.8,2.8,0,0,1,38,60.89a2,2,0,0,1,.81-.91,2.62,2.62,0,0,1,.85-.35,2.57,2.57,0,0,1,.9,0,2.07,2.07,0,0,1,1.11.51,3.3,3.3,0,0,1,.69,3.3,2.05,2.05,0,0,1-.81.92,2.55,2.55,0,0,1-.84.34,2.59,2.59,0,0,1-.91,0,2.07,2.07,0,0,1-1.11-.51A2.85,2.85,0,0,1,37.9,62.63Zm-2.32.71-1.9.13.15,2.18-1,.07-.33-4.87,1-.07.13,1.84,1.9-.13-.13-1.84,1-.07.33,4.87-1,.07Zm-7.24-4.63.45,0a1.77,1.77,0,0,1-.14.33.68.68,0,0,1-.69.4l-.23-.05-.27-.11-.32-.14-.14,0a.3.3,0,0,0-.26.09.45.45,0,0,0-.09.17l-.43,0a1.59,1.59,0,0,1,.1-.26,1.22,1.22,0,0,1,.17-.24.71.71,0,0,1,.25-.19.75.75,0,0,1,.39-.05,1.49,1.49,0,0,1,.47.19,1.55,1.55,0,0,0,.41.15.27.27,0,0,0,.22-.05A.43.43,0,0,0,28.35,58.71ZM26,63.2l1.23.2-.3-2Zm-.4.79-.49.94-1.06-.17,2.5-4.54,1.17.19.9,5.09-1.09-.17-.15-1Zm-2.58-2.24.72,2.91-1.19-.39-.36-1.88-1.45,1.28-1.14-.37,2.27-1.89-.67-2.72,1.15.38.34,1.77,1.34-1.22L25.2,60ZM19,57.21,16.4,61.34l-.81-.51,2.17-3.45-2.95,3L14,59.81l1.42-3.92L13.2,59.33l-.81-.51L15,54.69l1.25.79L14.95,59.2l2.79-2.78ZM14.83,52.1l.19-.26a.35.35,0,0,1,.13-.1l.19-.07a.34.34,0,0,0,.2,0,.49.49,0,0,0,.15-.14.3.3,0,0,0,.05-.22.25.25,0,0,0-.1-.18.49.49,0,0,0-.26-.08.24.24,0,0,0-.23.08l-.3-.22,0,0a.55.55,0,0,1,.44-.23.91.91,0,0,1,.59.2.82.82,0,0,1,.35.47.56.56,0,0,1-.09.47A1,1,0,0,1,16,52a.53.53,0,0,1-.3.09l-.16,0-.12,0a.35.35,0,0,0-.13.09l-.11.13,0,0Zm-.29-.5,0,1.26L14,52.41l0-.71-.68.19-.61-.45,1.21-.34Zm0,2.39-.62.59-1.79-1.86-.74.72,1.65,1.71-.62.59L10.81,54l-.91.88,1.87,1.95-.63.6L8.58,54.79l3.51-3.38Zm-3.52-3.26L7,53.38l-.55-.86,4.09-2.65ZM7,49l-.86-1.7-1.95,1-.46-.91L8.1,45.16l.46.91-1.65.84.86,1.7,1.65-.84.46.91L5.54,50.88,5.08,50ZM3.32,40.14A1.85,1.85,0,0,0,2.17,41a1.2,1.2,0,0,0,0,.94,1.18,1.18,0,0,0,.6.71,1.85,1.85,0,0,0,1.44,0,1.82,1.82,0,0,0,1.14-.87,1.18,1.18,0,0,0,0-.93,1.21,1.21,0,0,0-.6-.71A1.81,1.81,0,0,0,3.32,40.14Zm-.33-1a2.8,2.8,0,0,1,1.74-.11,2,2,0,0,1,1,.7,2.63,2.63,0,0,1,.45.8,2.58,2.58,0,0,1,.14.89,2.07,2.07,0,0,1-.37,1.17,2.81,2.81,0,0,1-1.44,1,2.83,2.83,0,0,1-1.74.11,2.05,2.05,0,0,1-1-.69,2.55,2.55,0,0,1-.44-.79,2.6,2.6,0,0,1-.14-.9,2.07,2.07,0,0,1,.37-1.17A2.84,2.84,0,0,1,3,39.18Zm2.39-3.56.32-.07a.35.35,0,0,1,.16,0l.19.07a.34.34,0,0,0,.18.1.48.48,0,0,0,.21,0,.3.3,0,0,0,.19-.13.25.25,0,0,0,.05-.2.49.49,0,0,0-.14-.23.24.24,0,0,0-.22-.1l-.08-.36h0a.55.55,0,0,1,.48.12.91.91,0,0,1,.3.54A.82.82,0,0,1,7,36a.56.56,0,0,1-.38.29,1,1,0,0,1-.27,0,.53.53,0,0,1-.28-.14l-.13-.09L5.83,36a.35.35,0,0,0-.16,0L5.5,36h0Zm-3.26.48.11,1.25,1.87-.77Zm-.86-.2-1-.25L.14,34.57l5,1.32.1,1.18L.53,39.19l-.09-1.1,1-.4Zm2.86-4.66-1.06-.08L3,32.35a.91.91,0,0,0,.09.52.48.48,0,0,0,.4.24A.43.43,0,0,0,3.88,33,1.08,1.08,0,0,0,4,32.4ZM2.23,31.1.93,31,.84,32.26a.88.88,0,0,0,.13.6.69.69,0,0,0,.53.24A.5.5,0,0,0,2,32.91a.9.9,0,0,0,.18-.51ZM.16,30,5,30.32l-.17,2.37a1.53,1.53,0,0,1-.52,1.16,1.17,1.17,0,0,1-.83.24,1.1,1.1,0,0,1-.7-.27,1.05,1.05,0,0,1-.24-.4A1.12,1.12,0,0,1,2,34a1.38,1.38,0,0,1-.7.11A1.39,1.39,0,0,1,.78,34a1.37,1.37,0,0,1-.43-.34,1.44,1.44,0,0,1-.29-.52A3.39,3.39,0,0,1,0,32Z"/></g></g></g></g></svg>