<svg xmlns="http://www.w3.org/2000/svg" viewBox="0 0 30 30.03"><defs><style>.cls-1,.cls-2{fill:#fff;}.cls-1{fill-rule:evenodd;}</style></defs><title>logo</title><g id="Layer_2" data-name="Layer 2"><g id="Layer_1-2" data-name="Layer 1"><path class="cls-1" d="M14.89,10a1.6,1.6,0,1,1-1.6,1.6,1.61,1.61,0,0,1,1.6-1.6M9.19,9.81h1.76c1.86,2,3.72,4.11,3.94,6.95.23-2.81,2.09-4.94,3.93-6.9h1.76c-.59.71-1.17,1.41-1.85,2.2A8.07,8.07,0,0,0,16.42,17v2.59a1.87,1.87,0,0,0,1.36.55c1.39.22,2.13-.4,2.88-.06h0c0-.83.82-1.27,1.16-2.64.58-1.08-.56-2.91-1.59-3.79l-.14-.09c1.35,0,3.47-.8,3.68-2,.57-1.29.16-2.16.69-2.8,0,0,0,0,0,0-.81-.19-1-1.12-2.24-1.8-.92-.86-3.06-.18-4.16.62q0-.15.11-.29c.33-1.32.23-3.35-.81-3.91-1-1-2-.84-2.43-1.55h0c-.44.71-1.39.6-2.42,1.55-1.09.59-1.15,2.79-.76,4.09l0,.1C10.66,6.72,8.52,6,7.6,6.89c-1.23.68-1.44,1.61-2.24,1.8,0,0,0,0,0,0,.53.64.12,1.51.69,2.8.21,1.24,2.33,2,3.68,2l0,0h0c-1.09.81-2.38,2.65-1.84,3.78C8.15,18.73,9,19.2,8.92,20h0c.77-.31,1.48.34,2.87.18a2,2,0,0,0,1.55-.63V16.93A8.07,8.07,0,0,0,11,12C10.36,11.22,9.78,10.52,9.19,9.81ZM7.88,21.46l0,0c1.34-.55,2.6.57,4.7,0a4.17,4.17,0,0,0,.73-.32v4.27l3.07,0V21.07a4.27,4.27,0,0,0,.49.22c2.07.69,3.38-.38,4.7.23l0,0v0c-.06-1.45,1.43-2.25,1.6-4.42a3.32,3.32,0,0,0-1.3-2.91,3.33,3.33,0,0,0,2.74-1.52c1.2-1.82.5-3.37,1.43-4.48l0,0h0c-1.41-.32-1.8-2-3.86-2.69a3.38,3.38,0,0,0-2.92.33,3.36,3.36,0,0,0-.6-2.94c-1.34-1.72-3-1.56-3.78-2.79l0,0,0,0c-.75,1.24-2.44,1.08-3.78,2.79a3.36,3.36,0,0,0-.6,3,3.37,3.37,0,0,0-2.95-.35c-2.06.72-2.45,2.37-3.86,2.69h0l0,0c.93,1.11.24,2.66,1.43,4.48A3.34,3.34,0,0,0,7.8,14.16a3.34,3.34,0,0,0-1.32,2.78c.07,2.18,1.52,3,1.4,4.49Z"/><path class="cls-2" d="M27.74,13.77l2.22,0v.43l-1.86,0,1.86.39V15l-1.85.43,1.86,0v.43l-2.22,0v-.68l1.74-.43-1.76-.38Zm1.14,3.94.08-.56-.91.15Zm.36.18.43.22-.07.48-2.09-1.1.08-.54,2.31-.45-.07.5-.47.08Zm-2,.78.15-.41,2.09.76-.16.44-1.8.3,1.49.55-.15.41L26.76,20l.17-.46,1.75-.29Zm-1,3.05,1.55,1-.25.39-1.55-1-.36.57-.33-.21,1-1.53.33.21Zm.35,3,.31.19-.2.33L26.36,25Zm-2.64-1.6L24.5,23l-.18.3-.32,0,.11.3-.18.3-.2-.54Zm1-.18.31.24-.71.94.38.28.65-.86.31.24-.65.86.46.35.74-1,.32.24-1,1.35L24,24.23Zm-1.41,1.57L25,26.18l-.35.3L23.19,24.8Zm-.95.83.41-.26.53,2.29-.37.23L21.36,26.1l.42-.26L23.07,27ZM20,26.49l.9,2-.42.19-.9-2Zm-1,3.07.13.34-.36.14-.13-.34Zm-1.09-2.88.49.3-.32.12-.28-.17-.09.31-.32.12.17-.55Zm-.13,1.78a.84.84,0,0,0,.33.57.55.55,0,0,0,.42.07.54.54,0,0,0,.35-.23.84.84,0,0,0,.07-.65.83.83,0,0,0-.33-.56.54.54,0,0,0-.42-.07.55.55,0,0,0-.36.23A.83.83,0,0,0,17.73,28.46Zm-.45.1a1.28,1.28,0,0,1,0-.79.92.92,0,0,1,.37-.42,1.2,1.2,0,0,1,.39-.16,1.17,1.17,0,0,1,.41,0,.94.94,0,0,1,.51.23,1.51,1.51,0,0,1,.32,1.5.93.93,0,0,1-.37.42,1.16,1.16,0,0,1-.38.16,1.18,1.18,0,0,1-.41,0,.94.94,0,0,1-.51-.23A1.3,1.3,0,0,1,17.28,28.55Zm-1.06.32-.86.06.07,1L15,30l-.15-2.22.46,0,.06.84.86-.06-.06-.84.46,0,.15,2.22-.46,0Zm-3.3-2.11.2,0a.81.81,0,0,1-.06.15.31.31,0,0,1-.32.18l-.1,0L12.52,27,12.38,27l-.06,0a.14.14,0,0,0-.12,0,.2.2,0,0,0,0,.08l-.2,0a.72.72,0,0,1,0-.12l.08-.11a.32.32,0,0,1,.11-.09.34.34,0,0,1,.18,0,.68.68,0,0,1,.21.09l.19.07a.13.13,0,0,0,.1,0A.19.19,0,0,0,12.92,26.76Zm-1.05,2,.56.09L12.3,28Zm-.18.36-.23.43L11,29.52l1.14-2.07.53.09.41,2.32-.5-.08-.07-.48Zm-1.17-1,.33,1.33-.54-.18-.16-.86L9.48,29,9,28.86,10,28l-.3-1.24.52.17.15.81.61-.56.51.17ZM8.66,26.08,7.48,28l-.37-.23,1-1.57L6.75,27.51l-.39-.24L7,25.48,6,27l-.37-.23,1.18-1.88.57.36L6.81,27l1.27-1.27Zm-1.9-2.33.09-.12.06,0,.09,0,.09,0,.07-.06a.14.14,0,0,0,0-.1.11.11,0,0,0,0-.08.22.22,0,0,0-.12,0,.11.11,0,0,0-.1,0l-.14-.1v0a.25.25,0,0,1,.2-.1.42.42,0,0,1,.27.09.37.37,0,0,1,.16.22.25.25,0,0,1,0,.21l-.08.09a.24.24,0,0,1-.14,0H7l-.06,0-.05.06v0Zm-.13-.23,0,.57-.28-.2v-.32L6,23.66l-.28-.2.55-.16Zm0,1.09-.28.27L5.55,24l-.34.33.75.78-.28.27-.75-.78-.41.4.85.89-.29.27L3.91,25l1.6-1.54ZM5,23.13,3.18,24.33l-.25-.39,1.87-1.21Zm-1.84-.8-.39-.77L1.92,22l-.21-.41,2-1L3.9,21l-.75.38.39.77.75-.38.21.41-2,1-.21-.41Zm-1.69-4a.84.84,0,0,0-.52.4.55.55,0,0,0,0,.43.54.54,0,0,0,.27.32.84.84,0,0,0,.66,0,.83.83,0,0,0,.52-.4.54.54,0,0,0,0-.42.55.55,0,0,0-.27-.32A.83.83,0,0,0,1.51,18.3Zm-.15-.44a1.27,1.27,0,0,1,.79,0,.92.92,0,0,1,.46.32,1.2,1.2,0,0,1,.2.37,1.17,1.17,0,0,1,.06.41.94.94,0,0,1-.17.53,1.28,1.28,0,0,1-.66.45,1.29,1.29,0,0,1-.79,0,.93.93,0,0,1-.46-.32,1.16,1.16,0,0,1-.2-.36,1.18,1.18,0,0,1-.06-.41.94.94,0,0,1,.17-.53A1.3,1.3,0,0,1,1.36,17.86Zm1.09-1.62.15,0h.07l.09,0a.15.15,0,0,0,.08,0h.09A.14.14,0,0,0,3,16.24a.11.11,0,0,0,0-.09A.22.22,0,0,0,3,16a.11.11,0,0,0-.1,0l0-.16h0a.25.25,0,0,1,.22.06.42.42,0,0,1,.14.25.37.37,0,0,1,0,.27.25.25,0,0,1-.18.13H2.89a.24.24,0,0,1-.13-.06l-.06,0,0,0H2.49ZM1,16.45,1,17l.85-.35Zm-.39-.09L.1,16.25l0-.49,2.28.6,0,.54-2.15,1,0-.5.44-.18Zm1.3-2.12-.48,0,0,.54a.42.42,0,0,0,0,.24.22.22,0,0,0,.18.11A.2.2,0,0,0,1.77,15a.49.49,0,0,0,.07-.25ZM1,14.18l-.59,0,0,.57A.4.4,0,0,0,.44,15a.31.31,0,0,0,.24.11A.23.23,0,0,0,.89,15,.41.41,0,0,0,1,14.77Zm-.94-.51,2.22.16L2.21,14.9a.7.7,0,0,1-.24.53.54.54,0,0,1-.38.11.5.5,0,0,1-.32-.12.48.48,0,0,1-.11-.18.51.51,0,0,1-.25.26.63.63,0,0,1-.32,0,.64.64,0,0,1-.25-.07.63.63,0,0,1-.2-.16A.66.66,0,0,1,0,15.08a1.54,1.54,0,0,1,0-.48Z"/></g></g></svg>